<svg width="23" height="23" viewBox="0 0 23 23" fill="none" xmlns="http://www.w3.org/2000/svg">
<circle cx="11.5" cy="11.5" r="11.5" fill="#990000"/>
<path fill-rule="evenodd" clip-rule="evenodd" d="M12 5C11.3557 5 10.8333 5.52234 10.8333 6.16667V10.8333H6.16667C5.52234 10.8333 5 11.3557 5 12C5 12.6443 5.52233 13.1667 6.16667 13.1667H10.8333V17.8333C10.8333 18.4777 11.3557 19 12 19C12.6443 19 13.1667 18.4777 13.1667 17.8333V13.1667H17.8333C18.4777 13.1667 19 12.6443 19 12C19 11.3557 18.4777 10.8333 17.8333 10.8333H13.1667V6.16667C13.1667 5.52233 12.6443 5 12 5Z" fill="white"/>
</svg>
