<svg width="10" height="12" viewBox="0 0 10 12" fill="none" xmlns="http://www.w3.org/2000/svg">
<path d="M3.2487 1.91614C3.09399 1.91614 2.94562 1.9776 2.83622 2.087C2.72682 2.19639 2.66536 2.34477 2.66536 2.49948C2.66536 2.65419 2.72682 2.80256 2.83622 2.91196C2.94562 3.02135 3.09399 3.08281 3.2487 3.08281C3.40341 3.08281 3.55178 3.02135 3.66118 2.91196C3.77057 2.80256 3.83203 2.65419 3.83203 2.49948C3.83203 2.34477 3.77057 2.19639 3.66118 2.087C3.55178 1.9776 3.40341 1.91614 3.2487 1.91614ZM1.59786 1.91614C1.71838 1.57458 1.94188 1.27881 2.23755 1.0696C2.53322 0.860394 2.8865 0.748047 3.2487 0.748047C3.6109 0.748047 3.96418 0.860394 4.25985 1.0696C4.55552 1.27881 4.77901 1.57458 4.89953 1.91614H9.08203C9.23674 1.91614 9.38511 1.9776 9.49451 2.087C9.60391 2.19639 9.66537 2.34477 9.66537 2.49948C9.66537 2.65419 9.60391 2.80256 9.49451 2.91196C9.38511 3.02135 9.23674 3.08281 9.08203 3.08281H4.89953C4.77901 3.42437 4.55552 3.72014 4.25985 3.92935C3.96418 4.13856 3.6109 4.25091 3.2487 4.25091C2.8865 4.25091 2.53322 4.13856 2.23755 3.92935C1.94188 3.72014 1.71838 3.42437 1.59786 3.08281H0.915365C0.760655 3.08281 0.612282 3.02135 0.502886 2.91196C0.39349 2.80256 0.332031 2.65419 0.332031 2.49948C0.332031 2.34477 0.39349 2.19639 0.502886 2.087C0.612282 1.9776 0.760655 1.91614 0.915365 1.91614H1.59786ZM6.7487 5.41614C6.59399 5.41614 6.44562 5.4776 6.33622 5.587C6.22682 5.69639 6.16537 5.84477 6.16537 5.99948C6.16537 6.15419 6.22682 6.30256 6.33622 6.41196C6.44562 6.52135 6.59399 6.58281 6.7487 6.58281C6.90341 6.58281 7.05178 6.52135 7.16118 6.41196C7.27057 6.30256 7.33203 6.15419 7.33203 5.99948C7.33203 5.84477 7.27057 5.69639 7.16118 5.587C7.05178 5.4776 6.90341 5.41614 6.7487 5.41614ZM5.09787 5.41614C5.21838 5.07458 5.44188 4.77881 5.73755 4.5696C6.03322 4.36039 6.3865 4.24805 6.7487 4.24805C7.1109 4.24805 7.46418 4.36039 7.75985 4.5696C8.05552 4.77881 8.27901 5.07458 8.39953 5.41614H9.08203C9.23674 5.41614 9.38511 5.4776 9.49451 5.587C9.60391 5.69639 9.66537 5.84477 9.66537 5.99948C9.66537 6.15419 9.60391 6.30256 9.49451 6.41196C9.38511 6.52135 9.23674 6.58281 9.08203 6.58281H8.39953C8.27901 6.92437 8.05552 7.22014 7.75985 7.42935C7.46418 7.63856 7.1109 7.75091 6.7487 7.75091C6.3865 7.75091 6.03322 7.63856 5.73755 7.42935C5.44188 7.22014 5.21838 6.92437 5.09787 6.58281H0.915365C0.760655 6.58281 0.612282 6.52135 0.502886 6.41196C0.39349 6.30256 0.332031 6.15419 0.332031 5.99948C0.332031 5.84477 0.39349 5.69639 0.502886 5.587C0.612282 5.4776 0.760655 5.41614 0.915365 5.41614H5.09787ZM3.2487 8.91614C3.09399 8.91614 2.94562 8.9776 2.83622 9.087C2.72682 9.19639 2.66536 9.34477 2.66536 9.49948C2.66536 9.65419 2.72682 9.80256 2.83622 9.91196C2.94562 10.0214 3.09399 10.0828 3.2487 10.0828C3.40341 10.0828 3.55178 10.0214 3.66118 9.91196C3.77057 9.80256 3.83203 9.65419 3.83203 9.49948C3.83203 9.34477 3.77057 9.19639 3.66118 9.087C3.55178 8.9776 3.40341 8.91614 3.2487 8.91614ZM1.59786 8.91614C1.71838 8.57458 1.94188 8.27881 2.23755 8.0696C2.53322 7.86039 2.8865 7.74805 3.2487 7.74805C3.6109 7.74805 3.96418 7.86039 4.25985 8.0696C4.55552 8.27881 4.77901 8.57458 4.89953 8.91614H9.08203C9.23674 8.91614 9.38511 8.9776 9.49451 9.087C9.60391 9.19639 9.66537 9.34477 9.66537 9.49948C9.66537 9.65419 9.60391 9.80256 9.49451 9.91196C9.38511 10.0214 9.23674 10.0828 9.08203 10.0828H4.89953C4.77901 10.4244 4.55552 10.7201 4.25985 10.9293C3.96418 11.1386 3.6109 11.2509 3.2487 11.2509C2.8865 11.2509 2.53322 11.1386 2.23755 10.9293C1.94188 10.7201 1.71838 10.4244 1.59786 10.0828H0.915365C0.760655 10.0828 0.612282 10.0214 0.502886 9.91196C0.39349 9.80256 0.332031 9.65419 0.332031 9.49948C0.332031 9.34477 0.39349 9.19639 0.502886 9.087C0.612282 8.9776 0.760655 8.91614 0.915365 8.91614H1.59786Z" fill="#990000"/>
</svg>
